# xmcd
#
# Track frame offsets:
#	151
#	12361
#	31188
#	55125
#	82771
#	107771
#	125969
#	150872
#	165603
#	177197
#	195348
#	220579
#	243304
#
# Disc length: 3660
#
# Revision: 3
# Processed by: cddbd v1.5.1PL0 Copyright (c) Steve Scherf et al.
# Submitted via: CDmax 1.9
# Normalized: r2:TDELIM( - )
#
DISCID=960e4a0d
DTITLE=Various Artist - Springtime Blues - Disc 1
DYEAR=1998
DGENRE=Blues
TTITLE0=John Kirkbridge - Blues For Robert Johnson
TTITLE1=John Kirkbridge - Hey Now Baby
TTITLE2=Schroeter/Breitfelder - Pad-Dock Blues
TTITLE3=Schroeter/Breitfelder - Boogie No. 1
TTITLE4=Marc Breitfelder - Train
TTITLE5=Hans Blues and Boogie - Leihwein
TTITLE6=Hans Blues and Boogie - Dark Clouds OF Anger
TTITLE7=Blue Lake Band - Baby, What's Wrong Woth Us
TTITLE8=Walin' Willie - One Fine Day
TTITLE9=Walin' Willie - Train Rider Blues
TTITLE10=Slidin' John - Roll On Boogie Train
TTITLE11=Bluebyrds - Mr. Blues
TTITLE12=Bluebyrds - Tonight
EXTD=
EXTT0=
EXTT1=
EXTT2=
EXTT3=
EXTT4=
EXTT5=
EXTT6=
EXTT7=
EXTT8=
EXTT9=
EXTT10=
EXTT11=
EXTT12=
PLAYORDER=
